<?xml version="1.0" encoding="UTF-8"?>
<svg xmlns="http://www.w3.org/2000/svg" viewBox="0 0 380 80" width="380" height="80">
  <defs>
    <linearGradient id="goldAccent" x1="0%" y1="0%" x2="100%" y2="100%">
      <stop offset="0%" style="stop-color:#FBBF24"/>
      <stop offset="100%" style="stop-color:#F59E0B"/>
    </linearGradient>
    <filter id="glow" x="-100%" y="-100%" width="300%" height="300%">
      <feGaussianBlur stdDeviation="2" result="blur"/>
      <feMerge>
        <feMergeNode in="blur"/>
        <feMergeNode in="SourceGraphic"/>
      </feMerge>
    </filter>
  </defs>
  
  <!-- B4 Icon (smaller) -->
  <g transform="translate(5, 5)">
    <line x1="35" y1="8" x2="57" y2="20" stroke="#4338CA" stroke-width="2" opacity="0.6"/>
    <line x1="57" y1="20" x2="57" y2="45" stroke="#4338CA" stroke-width="2" opacity="0.6"/>
    <line x1="57" y1="45" x2="35" y2="57" stroke="#6366F1" stroke-width="2" opacity="0.7"/>
    <line x1="35" y1="57" x2="13" y2="45" stroke="#6366F1" stroke-width="2" opacity="0.7"/>
    <line x1="13" y1="45" x2="13" y2="20" stroke="#4338CA" stroke-width="2" opacity="0.6"/>
    <line x1="13" y1="20" x2="35" y2="8" stroke="#4338CA" stroke-width="2" opacity="0.6"/>
    <line x1="35" y1="32" x2="35" y2="8" stroke="#818CF8" stroke-width="1.5" opacity="0.5"/>
    <line x1="35" y1="32" x2="57" y2="20" stroke="#818CF8" stroke-width="1.5" opacity="0.5"/>
    <line x1="35" y1="32" x2="57" y2="45" stroke="#818CF8" stroke-width="1.5" opacity="0.5"/>
    <line x1="35" y1="32" x2="35" y2="57" stroke="#818CF8" stroke-width="1.5" opacity="0.5"/>
    <line x1="35" y1="32" x2="13" y2="45" stroke="#818CF8" stroke-width="1.5" opacity="0.5"/>
    <line x1="35" y1="32" x2="13" y2="20" stroke="#818CF8" stroke-width="1.5" opacity="0.5"/>
    <circle cx="35" cy="8" r="5" fill="#6366F1"/>
    <circle cx="57" cy="20" r="5" fill="#6366F1"/>
    <circle cx="57" cy="45" r="5" fill="#6366F1"/>
    <circle cx="35" cy="57" r="5" fill="#6366F1"/>
    <circle cx="13" cy="45" r="5" fill="#6366F1"/>
    <circle cx="13" cy="20" r="5" fill="#6366F1"/>
    <circle cx="35" cy="32" r="9" fill="url(#goldAccent)" filter="url(#glow)"/>
    <circle cx="35" cy="32" r="4" fill="#FEF3C7"/>
  </g>
  
  <!-- Wordmark + Tagline -->
  <text x="85" y="35" font-family="system-ui, -apple-system, sans-serif" font-size="36" font-weight="700" fill="#F8FAFC" letter-spacing="5">DIWA</text>
  <text x="85" y="55" font-family="system-ui, -apple-system, sans-serif" font-size="12" fill="#94A3B8" letter-spacing="1.5">AI MEMORY FOR DEV TEAMS</text>
</svg>
